<svg width="73" height="46" viewBox="0 0 73 46" fill="none" xmlns="http://www.w3.org/2000/svg">
<path d="M58.3574 42H56.6611V36.085H50.21V42H48.5225V29.2031H50.21V34.7051H56.6611V29.2031H58.3574V42ZM62.8662 42H61.2402V32.4902H62.8662V42ZM61.1084 29.9678C61.1084 29.7041 61.1875 29.4814 61.3457 29.2998C61.5098 29.1182 61.75 29.0273 62.0664 29.0273C62.3828 29.0273 62.623 29.1182 62.7871 29.2998C62.9512 29.4814 63.0332 29.7041 63.0332 29.9678C63.0332 30.2314 62.9512 30.4512 62.7871 30.627C62.623 30.8027 62.3828 30.8906 62.0664 30.8906C61.75 30.8906 61.5098 30.8027 61.3457 30.627C61.1875 30.4512 61.1084 30.2314 61.1084 29.9678ZM67.2432 42H65.6172V28.5H67.2432V42ZM71.6201 42H69.9941V28.5H71.6201V42Z" fill="#3E3E3E"/>
<path d="M2.42106 22V5.2H6.54906V11.728H13.3411V5.2H17.4691V22H13.3411V15.352H6.54906V22H2.42106ZM31.7898 20.248C30.9898 20.952 30.1818 21.464 29.3658 21.784C28.5498 22.088 27.6218 22.24 26.5818 22.24C25.6698 22.24 24.8138 22.08 24.0138 21.76C23.2298 21.424 22.5418 20.968 21.9498 20.392C21.3578 19.816 20.8938 19.136 20.5578 18.352C20.2218 17.568 20.0538 16.728 20.0538 15.832C20.0538 14.92 20.2138 14.072 20.5338 13.288C20.8538 12.504 21.2858 11.824 21.8298 11.248C22.3898 10.672 23.0538 10.224 23.8218 9.904C24.5898 9.568 25.4138 9.4 26.2938 9.4C27.1898 9.4 28.0058 9.568 28.7418 9.904C29.4938 10.224 30.1338 10.672 30.6618 11.248C31.2058 11.824 31.6298 12.52 31.9338 13.336C32.2378 14.136 32.3898 15.016 32.3898 15.976V16.816H23.8698C24.0458 17.504 24.3978 18.064 24.9258 18.496C25.4538 18.928 26.0698 19.144 26.7738 19.144C27.2858 19.144 27.7498 19.056 28.1658 18.88C28.5978 18.704 28.9498 18.448 29.2218 18.112L31.7898 20.248ZM26.2698 12.424C25.6618 12.424 25.1498 12.616 24.7338 13C24.3178 13.384 24.0298 13.92 23.8698 14.608H28.7898C28.6298 13.936 28.3258 13.408 27.8778 13.024C27.4298 12.624 26.8938 12.424 26.2698 12.424ZM34.8089 22V9.616H38.6969V11.632C39.1769 10.912 39.7449 10.368 40.4009 10C41.0729 9.616 41.8089 9.424 42.6089 9.424C43.8089 9.424 44.7929 9.824 45.5609 10.624C46.3289 11.408 46.7129 12.416 46.7129 13.648V22H42.8249V14.776C42.8249 14.088 42.6329 13.536 42.2489 13.12C41.8809 12.688 41.3849 12.472 40.7609 12.472C40.3449 12.472 39.9609 12.56 39.6089 12.736C39.2729 12.896 38.9689 13.152 38.6969 13.504V22H34.8089ZM49.6448 22V9.616H53.5328V12.424C53.9328 11.4 54.4048 10.64 54.9488 10.144C55.5088 9.632 56.1568 9.376 56.8928 9.376C57.1648 9.392 57.3888 9.424 57.5648 9.472C57.7408 9.504 57.9488 9.576 58.1888 9.688V13.024C57.9488 12.912 57.6688 12.824 57.3488 12.76C57.0288 12.68 56.7008 12.64 56.3648 12.64C55.7888 12.64 55.2448 12.784 54.7328 13.072C54.2368 13.344 53.8368 13.712 53.5328 14.176V22H49.6448ZM63.4004 22.696L63.5924 22.24L59.0324 9.616H63.3284L65.8004 17.608L68.6324 9.616H72.8324L67.2644 23.44C66.6884 24.848 65.9924 25.84 65.1764 26.416C64.3764 27.008 63.2644 27.304 61.8404 27.304C61.6164 27.304 61.3524 27.288 61.0484 27.256C60.7604 27.224 60.4884 27.176 60.2324 27.112V23.848C60.6324 23.896 60.8964 23.92 61.0244 23.92C61.1524 23.936 61.2724 23.944 61.3844 23.944C61.9124 23.944 62.3364 23.84 62.6564 23.632C62.9924 23.424 63.2404 23.112 63.4004 22.696Z" fill="black"/>
</svg>
